<svg
  width="147"
  height="54"
  viewBox="0 0 147 54"
  fill="none"
  xmlns="http://www.w3.org/2000/svg"
>
<path
    d="M146.311 51.7714V24.8762C146.311 24.4788 146.153 24.0977 145.872 23.8167C145.591 23.5357 145.21 23.3778 144.813 23.3778H135.505C135.111 23.3778 134.733 23.2213 134.454 22.9426C134.176 22.664 134.019 22.2861 134.019 21.8921V1.65081C134.019 1.45463 133.98 1.26039 133.905 1.0793C133.829 0.898213 133.719 0.733862 133.579 0.595733C133.44 0.457605 133.275 0.348434 133.093 0.274521C132.911 0.200607 132.717 0.163416 132.521 0.165093H104.813C104.714 0.163373 104.616 0.181577 104.524 0.218619C104.432 0.255662 104.349 0.310784 104.279 0.3807C104.209 0.450615 104.154 0.533893 104.117 0.625568C104.08 0.717243 104.062 0.815438 104.064 0.914299V0.914299V1.39684C104.065 1.49462 104.047 1.59176 104.011 1.68259C103.975 1.77342 103.921 1.85612 103.852 1.92586C103.784 1.9956 103.702 2.05099 103.612 2.08879C103.522 2.1266 103.425 2.14606 103.327 2.14605C103.227 2.14758 103.128 2.12802 103.036 2.08863C102.944 2.04925 102.861 1.99093 102.794 1.91747L101.27 0.380966C101.129 0.237412 100.937 0.155257 100.737 0.152394L81.181 0.241283C80.9855 0.240387 80.7918 0.278061 80.611 0.352148C80.4301 0.426234 80.2656 0.535277 80.127 0.673029L73.8921 6.90795C73.7518 7.04676 73.5624 7.12462 73.3651 7.12462C73.1677 7.12462 72.9784 7.04676 72.8381 6.90795V6.90795L66.6667 0.558744C66.5167 0.415711 66.3391 0.304777 66.1448 0.232725C65.9505 0.160673 65.7435 0.129018 65.5365 0.139696L46.3111 0.165093C46.1093 0.159078 45.9084 0.19426 45.7206 0.268492C45.5329 0.342723 45.3622 0.454446 45.2191 0.596839L39.0476 6.76827C38.9074 6.90707 38.718 6.98493 38.5206 6.98493C38.3233 6.98493 38.1339 6.90707 37.9937 6.76827V6.76827L32.0254 0.469855C31.8879 0.320928 31.721 0.202244 31.5352 0.121355C31.3493 0.0404654 31.1487 -0.000858111 30.946 1.35066e-05H11.4794C11.2878 -0.000331996 11.0981 0.0376925 10.9214 0.111844C10.7448 0.185996 10.5847 0.294773 10.4508 0.43176L0.45715 10.1587C0.31328 10.2968 0.198662 10.4623 0.120125 10.6456C0.0415876 10.8289 0.000737137 11.026 7.4003e-06 11.2254V41.473C-0.000608636 41.6665 0.0372425 41.8582 0.111361 42.037C0.185479 42.2158 0.294387 42.378 0.431754 42.5143L10.3746 52.673C10.5126 52.8169 10.6782 52.9315 10.8615 53.0101C11.0447 53.0886 11.2419 53.1294 11.4413 53.1302H30.1206C30.503 53.1321 30.8714 52.9866 31.1492 52.7238L37.8286 46.3746C37.9689 46.2358 38.1582 46.1579 38.3556 46.1579C38.5529 46.1579 38.7423 46.2358 38.8825 46.3746L45.2318 52.8762C45.3693 53.0207 45.5348 53.1357 45.7182 53.2142C45.9015 53.2928 46.0989 53.3333 46.2984 53.3333H65.6127C66.0131 53.3324 66.3967 53.1725 66.6794 52.8889L72.927 46.5397C73.0673 46.4009 73.2566 46.323 73.454 46.323C73.6513 46.323 73.8407 46.4009 73.981 46.5397V46.5397L80.2413 52.8889C80.3789 53.0334 80.5443 53.1484 80.7277 53.2269C80.911 53.3055 81.1085 53.346 81.3079 53.346L100.927 53.2699C101.124 53.265 101.311 53.1829 101.448 53.0413L102.717 51.6826C102.858 51.5437 103.047 51.4659 103.244 51.4659C103.442 51.4659 103.631 51.5437 103.771 51.6826C103.911 51.8261 103.992 52.016 104 52.2159V52.5587C104 52.7541 104.078 52.9414 104.216 53.0795C104.354 53.2177 104.541 53.2953 104.737 53.2953H144.749C145.143 53.2953 145.521 53.1387 145.8 52.8601C146.078 52.5815 146.235 52.2036 146.235 51.8095L146.311 51.7714Z"
    fill="white"
  />
<path
    d="M31.9365 37.2191V34.0064C31.9365 33.8077 31.8576 33.6171 31.7171 33.4766C31.5766 33.3361 31.386 33.2572 31.1873 33.2572H27.8476C27.7488 33.2555 27.6506 33.2737 27.5589 33.3107C27.4672 33.3478 27.384 33.4029 27.314 33.4728C27.2441 33.5427 27.189 33.626 27.152 33.7177C27.1149 33.8093 27.0967 33.9075 27.0984 34.0064V34.0064V36.4318C27.0984 36.6271 27.0207 36.8144 26.8826 36.9524L25.0159 38.8699C24.9481 38.9433 24.8655 39.0017 24.7736 39.041C24.6817 39.0804 24.5825 39.1 24.4826 39.0985H17.3841C17.1888 39.0984 17.0016 39.0207 16.8635 38.8826L14.9334 36.9651C14.8056 36.8223 14.7375 36.636 14.7429 36.4445V15.7842C14.744 15.6754 14.7683 15.5681 14.8143 15.4696C14.8603 15.371 14.9269 15.2834 15.0095 15.2127L16.8889 13.5873C17.0232 13.4623 17.2007 13.3941 17.3841 13.3969H24.5461C24.728 13.4022 24.9027 13.4694 25.0413 13.5873L26.8191 15.2381C26.8946 15.3078 26.9549 15.3922 26.9964 15.4861C27.0379 15.58 27.0597 15.6815 27.0603 15.7842V17.5873C27.0636 17.785 27.1436 17.9737 27.2834 18.1135C27.4232 18.2533 27.6119 18.3333 27.8095 18.3365H31.1619C31.3584 18.3332 31.5457 18.2528 31.6835 18.1127C31.8213 17.9725 31.8985 17.7839 31.8984 17.5873V14.8572C31.8991 14.7604 31.8803 14.6644 31.8433 14.575C31.8062 14.4856 31.7515 14.4045 31.6826 14.3365L27.1619 9.80321C27.0916 9.73386 27.0083 9.67909 26.9168 9.64204C26.8253 9.60499 26.7273 9.5864 26.6286 9.58734H15.0476C14.8467 9.5902 14.655 9.67236 14.5143 9.81591L10.0699 14.3365C9.93172 14.4746 9.85407 14.6619 9.85399 14.8572V37.2572C9.85527 37.4461 9.92784 37.6275 10.0572 37.7651L14.5397 42.6032C14.6093 42.6787 14.6937 42.7391 14.7877 42.7806C14.8816 42.8221 14.983 42.8438 15.0857 42.8445H26.2476C26.4429 42.8444 26.6302 42.7668 26.7683 42.6286L31.6953 37.7524C31.8423 37.613 31.929 37.4216 31.9365 37.2191ZM35.327 39.3651L28.1778 46.2096C28.0409 46.34 27.859 46.4127 27.6699 46.4127H13.7016C13.5012 46.4072 13.3105 46.3255 13.1683 46.1842L6.46351 39.3651C6.33361 39.2217 6.25734 39.0377 6.24764 38.8445V13.3207C6.24611 13.2207 6.26567 13.1215 6.30506 13.0296C6.34444 12.9377 6.40276 12.8552 6.47621 12.7873L13.0667 6.34925C13.2047 6.21111 13.392 6.13346 13.5873 6.13337H28.2921C28.3929 6.13074 28.4933 6.1485 28.5871 6.18559C28.681 6.22269 28.7663 6.27835 28.8381 6.34925L35.3143 13.1937C35.381 13.2627 35.4333 13.3442 35.4682 13.4336C35.503 13.523 35.5198 13.6184 35.5175 13.7143V21.0413C35.5192 21.1391 35.5014 21.2362 35.4651 21.3271C35.4288 21.4179 35.3749 21.5006 35.3063 21.5703C35.2377 21.6401 35.156 21.6955 35.0658 21.7333C34.9756 21.7711 34.8788 21.7905 34.781 21.7905H24.1905C24.0927 21.7905 23.9959 21.7711 23.9057 21.7333C23.8155 21.6955 23.7337 21.6401 23.6652 21.5703C23.5966 21.5006 23.5426 21.4179 23.5064 21.3271C23.4701 21.2362 23.4523 21.1391 23.454 21.0413V21.0413V17.6508C23.4557 17.552 23.4375 17.4538 23.4005 17.3621C23.3634 17.2704 23.3083 17.1872 23.2384 17.1172C23.1685 17.0473 23.0852 16.9922 22.9935 16.9552C22.9018 16.9181 22.8036 16.8999 22.7048 16.9016H19.0603C18.9626 16.8999 18.8654 16.9177 18.7746 16.954C18.6838 16.9903 18.6011 17.0442 18.5313 17.1128C18.4616 17.1814 18.4062 17.2631 18.3684 17.3533C18.3306 17.4435 18.3111 17.5403 18.3111 17.6381V34.8445C18.3111 35.0432 18.3901 35.2337 18.5306 35.3743C18.6711 35.5148 18.8616 35.5937 19.0603 35.5937H22.7048C22.9013 35.5904 23.0886 35.51 23.2264 35.3698C23.3641 35.2297 23.4413 35.041 23.4413 34.8445V30.4762C23.4396 30.3784 23.4574 30.2813 23.4937 30.1905C23.5299 30.0997 23.5839 30.017 23.6525 29.9472C23.721 29.8775 23.8028 29.8221 23.893 29.7843C23.9832 29.7465 24.08 29.727 24.1778 29.727H34.8064C35.0029 29.727 35.1916 29.8042 35.3317 29.942C35.4718 30.0797 35.5522 30.267 35.5556 30.4635V30.4635V38.7429C35.548 38.9454 35.4614 39.1369 35.3143 39.2762L35.327 39.3651Z"
    fill="#2D84DD"
  />
<path
    d="M58.3746 34.9968V17.7905C58.3713 17.5928 58.2914 17.4041 58.1516 17.2643C58.0118 17.1245 57.8231 17.0445 57.6254 17.0413H53.9683C53.7696 17.0413 53.579 17.1202 53.4385 17.2607C53.298 17.4012 53.2191 17.5918 53.2191 17.7905V17.7905V34.9968C53.2223 35.1945 53.3023 35.3832 53.4421 35.523C53.5819 35.6628 53.7706 35.7428 53.9683 35.746H57.6127C57.8104 35.7428 57.9991 35.6628 58.1389 35.523C58.2787 35.3832 58.3586 35.1945 58.3619 34.9968H58.3746ZM61.8032 37.2191L60.1651 39.0095C60.0931 39.0854 60.0064 39.1459 59.9104 39.1873C59.8144 39.2288 59.711 39.2504 59.6064 39.2508H52.2159C52.0233 39.249 51.8381 39.1767 51.6952 39.0476L49.8413 37.2318C49.7678 37.1639 49.7095 37.0814 49.6701 36.9895C49.6307 36.8976 49.6112 36.7984 49.6127 36.6984V16.0508C49.615 15.846 49.697 15.6501 49.8413 15.5048L51.6952 13.7524C51.7613 13.6844 51.8402 13.6302 51.9274 13.5932C52.0146 13.5561 52.1084 13.5368 52.2032 13.5365H59.6064C59.7083 13.534 59.8097 13.553 59.9038 13.5924C59.9979 13.6318 60.0826 13.6907 60.1524 13.7651L61.727 15.4921C61.7933 15.5587 61.8455 15.638 61.8804 15.7253C61.9153 15.8126 61.9322 15.906 61.9302 16V36.7111C61.9324 36.8983 61.8644 37.0795 61.7397 37.2191H61.8032ZM66.8826 37.5492V15.0984C66.8808 14.9059 66.8085 14.7206 66.6794 14.5778L62.0699 9.95557C62.002 9.88211 61.9195 9.82379 61.8276 9.78441C61.7357 9.74502 61.6365 9.72546 61.5365 9.72699H50.3873C50.1948 9.72877 50.0095 9.80105 49.8667 9.93017L44.9905 14.5778C44.9167 14.648 44.8583 14.7328 44.8189 14.8268C44.7796 14.9208 44.7602 15.0219 44.7619 15.1238V37.5619C44.7596 37.6578 44.7764 37.7533 44.8112 37.8426C44.8461 37.932 44.8984 38.0136 44.9651 38.0825L49.4349 42.7556C49.5052 42.8294 49.59 42.8878 49.684 42.9271C49.778 42.9665 49.8791 42.9859 49.981 42.9841H61.5492C61.6492 42.9857 61.7484 42.9661 61.8403 42.9267C61.9322 42.8873 62.0147 42.829 62.0825 42.7556L66.6286 38.0952C66.6953 38.0263 66.7476 37.9447 66.7824 37.8553C66.8173 37.766 66.8341 37.6705 66.8318 37.5746L66.8826 37.5492ZM70.2984 39.454L63.6064 46.273C63.4657 46.4166 63.274 46.4987 63.073 46.5016H48.4953C48.3953 46.5031 48.2961 46.4836 48.2042 46.4442C48.1123 46.4048 48.0298 46.3465 47.9619 46.273L41.4095 39.4794C41.3415 39.4134 41.2874 39.3344 41.2503 39.2472C41.2132 39.16 41.194 39.0662 41.1937 38.9714V13.5746C41.1927 13.4759 41.2113 13.3779 41.2484 13.2864C41.2854 13.1949 41.3402 13.1116 41.4095 13.0413L47.9873 6.5143C48.1254 6.37616 48.3126 6.29851 48.508 6.29842H62.9968C63.0968 6.29689 63.196 6.31645 63.2879 6.35584C63.3798 6.39522 63.4623 6.45354 63.5302 6.52699L70.2349 13.3841C70.3731 13.5222 70.4507 13.7095 70.4508 13.9048V39.0095C70.4507 39.2048 70.3731 39.3921 70.2349 39.5302L70.2984 39.454Z"
    fill="#F0DB1B"
  />
<path
    d="M93.3207 34.9968V17.8159C93.3173 17.6194 93.2369 17.4321 93.0968 17.2943C92.9566 17.1565 92.768 17.0793 92.5714 17.0794H88.8762C88.7773 17.0777 88.6792 17.0959 88.5875 17.1329C88.4958 17.1699 88.4125 17.2251 88.3426 17.295C88.2727 17.3649 88.2176 17.4482 88.1805 17.5399C88.1435 17.6315 88.1253 17.7297 88.127 17.8286V17.8286L88.2032 35.0095C88.2015 35.1084 88.2197 35.2066 88.2567 35.2983C88.2938 35.3899 88.3489 35.4732 88.4188 35.5431C88.4887 35.6131 88.572 35.6682 88.6637 35.7052C88.7553 35.7423 88.8535 35.7605 88.9524 35.7587H92.5842C92.7818 35.7522 92.9691 35.669 93.1066 35.5268C93.244 35.3846 93.3208 35.1946 93.3207 34.9968V34.9968ZM96.7619 37.2191L95.1238 39.0095C95.0542 39.085 94.9698 39.1454 94.8759 39.1869C94.782 39.2284 94.6805 39.2502 94.5778 39.2508H87.2C87.007 39.2515 86.8209 39.1789 86.6794 39.0476L84.8127 37.2445C84.6692 37.1038 84.587 36.9121 84.5841 36.7111L84.4953 16.0762C84.4981 15.8752 84.5803 15.6835 84.7238 15.5429L86.5651 13.7778C86.708 13.6487 86.8932 13.5764 87.0857 13.5746H94.4762C94.6805 13.5795 94.8754 13.6611 95.0222 13.8032L96.6603 15.5302C96.7897 15.6678 96.8622 15.8492 96.8635 16.0381L96.9524 36.7238C96.9534 36.9108 96.8856 37.0915 96.7619 37.2318V37.2191ZM101.841 37.5365L101.702 15.1111C101.692 14.9179 101.616 14.7339 101.486 14.5905L96.9524 9.98097C96.8056 9.83884 96.6106 9.75723 96.4064 9.75239H85.2699C85.081 9.75367 84.8996 9.82624 84.7619 9.95557L79.8984 14.6159C79.8246 14.6861 79.7662 14.7709 79.7269 14.8649C79.6875 14.9589 79.6681 15.06 79.6699 15.1619L79.7587 37.5746C79.76 37.7635 79.8326 37.9449 79.9619 38.0826L84.4445 42.7429C84.5156 42.8155 84.6006 42.8731 84.6944 42.9123C84.7882 42.9516 84.8888 42.9717 84.9905 42.9714H96.546C96.646 42.973 96.7452 42.9534 96.8371 42.914C96.929 42.8746 97.0115 42.8163 97.0794 42.7429L101.587 38.0953C101.718 37.9583 101.791 37.7764 101.791 37.5873L101.841 37.5365ZM105.257 39.4286L98.5524 46.2603C98.4117 46.4039 98.22 46.486 98.0191 46.4889H83.5175C83.3127 46.4866 83.1168 46.4046 82.9715 46.2603L76.3683 39.4794C76.2993 39.4114 76.2447 39.3304 76.2076 39.2409C76.1705 39.1515 76.1517 39.0556 76.1524 38.9587L76.0508 13.5619C76.0516 13.363 76.1289 13.1721 76.2667 13.0286L82.8064 6.527C82.9465 6.40466 83.1284 6.341 83.3143 6.34922H97.8286C98.0296 6.35208 98.2213 6.43424 98.3619 6.57779L105.092 13.4095C105.221 13.5524 105.293 13.7376 105.295 13.9302L105.41 39.0095C105.389 39.1675 105.318 39.3146 105.206 39.4286H105.257Z"
    fill="#1CC3AA"
  />
<path
    d="M136.343 42.2349V33.6508C136.345 33.553 136.327 33.4559 136.29 33.365C136.254 33.2742 136.2 33.1915 136.132 33.1218C136.063 33.052 135.981 32.9966 135.891 32.9588C135.801 32.921 135.704 32.9016 135.606 32.9016H132.343C132.244 32.8999 132.146 32.9181 132.054 32.9551C131.962 32.9921 131.879 33.0473 131.809 33.1172C131.739 33.1871 131.684 33.2704 131.647 33.3621C131.61 33.4537 131.592 33.5519 131.594 33.6508V33.6508V38.4889C131.595 38.5877 131.577 38.6859 131.54 38.7776C131.503 38.8693 131.448 38.9526 131.378 39.0225C131.308 39.0924 131.225 39.1475 131.133 39.1846C131.042 39.2216 130.943 39.2398 130.844 39.2381H121.41C121.312 39.2381 121.215 39.2186 121.125 39.1808C121.035 39.143 120.953 39.0876 120.884 39.0179C120.816 38.9482 120.762 38.8655 120.725 38.7746C120.689 38.6838 120.671 38.5867 120.673 38.4889V14.2857C120.673 14.087 120.752 13.8964 120.892 13.7559C121.033 13.6154 121.224 13.5365 121.422 13.5365H123.352C123.45 13.5382 123.547 13.5204 123.638 13.4841C123.729 13.4479 123.812 13.3939 123.881 13.3253C123.951 13.2568 124.007 13.175 124.044 13.0848C124.082 12.9946 124.102 12.8978 124.102 12.8V10.4889C124.102 10.2902 124.023 10.0996 123.882 9.95911C123.742 9.81861 123.551 9.73968 123.352 9.73968H114.464C114.265 9.73968 114.074 9.81861 113.934 9.95911C113.793 10.0996 113.714 10.2902 113.714 10.4889V12.8C113.714 12.9987 113.793 13.1893 113.934 13.3298C114.074 13.4703 114.265 13.5492 114.464 13.5492H115.594C115.789 13.5492 115.976 13.6268 116.114 13.7649C116.253 13.903 116.33 14.0904 116.33 14.2857V14.2857V38.4889C116.332 38.5877 116.314 38.6859 116.277 38.7776C116.24 38.8693 116.184 38.9526 116.115 39.0225C116.045 39.0924 115.961 39.1475 115.87 39.1846C115.778 39.2216 115.68 39.2398 115.581 39.2381H114.464C114.365 39.2364 114.266 39.2546 114.175 39.2916C114.083 39.3287 114 39.3838 113.93 39.4537C113.86 39.5236 113.805 39.6069 113.768 39.6986C113.731 39.7902 113.713 39.8884 113.714 39.9873V39.9873V42.2349C113.714 42.4336 113.793 42.6242 113.934 42.7647C114.074 42.9052 114.265 42.9841 114.464 42.9841H135.708C135.904 42.9808 136.092 42.9004 136.23 42.7602C136.367 42.6201 136.444 42.4314 136.444 42.2349H136.343ZM138.883 46.4889H110.946C110.748 46.4856 110.56 46.4056 110.42 46.2658C110.28 46.126 110.2 45.9374 110.197 45.7397V45.7397V36.4698C110.2 36.2733 110.281 36.086 110.421 35.9483C110.561 35.8105 110.75 35.7333 110.946 35.7333H112.076C112.274 35.7301 112.463 35.6501 112.602 35.5103C112.742 35.3705 112.822 35.1818 112.825 34.9841V34.9841V17.7778C112.822 17.5801 112.742 17.3914 112.602 17.2516C112.463 17.1118 112.274 17.0318 112.076 17.0286H110.946C110.75 17.0286 110.561 16.9514 110.421 16.8136C110.281 16.6759 110.2 16.4885 110.197 16.2921V16.2921V6.98412C110.197 6.88573 110.216 6.78831 110.254 6.69741C110.292 6.60651 110.347 6.52392 110.416 6.45435C110.486 6.38478 110.568 6.3296 110.659 6.29194C110.75 6.25429 110.848 6.23491 110.946 6.23491H126.552C126.651 6.23319 126.749 6.2514 126.841 6.28844C126.933 6.32548 127.016 6.3806 127.086 6.45052C127.156 6.52044 127.211 6.60371 127.248 6.69539C127.285 6.78706 127.303 6.88526 127.302 6.98412V16.3048C127.302 16.4026 127.282 16.4994 127.244 16.5896C127.207 16.6798 127.151 16.7615 127.081 16.8301C127.012 16.8986 126.929 16.9526 126.838 16.9889C126.747 17.0251 126.65 17.0429 126.552 17.0413H124.711C124.613 17.0396 124.515 17.0573 124.423 17.0934C124.332 17.1295 124.248 17.1833 124.178 17.2517C124.107 17.3201 124.05 17.4017 124.011 17.492C123.972 17.5823 123.951 17.6794 123.949 17.7778V17.7778V34.9841C123.949 35.1828 124.028 35.3734 124.169 35.5139C124.309 35.6544 124.5 35.7333 124.698 35.7333H127.898C128.097 35.7333 128.288 35.6544 128.428 35.5139C128.569 35.3734 128.648 35.1828 128.648 34.9841V34.9841V30.1968C128.648 29.9981 128.727 29.8076 128.867 29.667C129.008 29.5265 129.198 29.4476 129.397 29.4476H138.921C139.118 29.4509 139.307 29.5309 139.447 29.6707C139.587 29.8105 139.667 29.9991 139.67 30.1968V45.7143C139.67 45.9108 139.593 46.0995 139.455 46.2396C139.317 46.3797 139.13 46.4602 138.933 46.4635L138.883 46.4889Z"
    fill="#FA565A"
  />
</svg>
