<svg
  xmlns="http://www.w3.org/2000/svg"
>
<circle cx="18.1242" cy="17.5292" r="17.5292" fill="#FFC145" />
<mask
    id="mask0_47:1583"
    style="mask-type:alpha"
    maskUnits="userSpaceOnUse"
    x="0"
    y="0"
    width="36"
    height="36"
  >
<circle cx="18.1242" cy="17.5292" r="17.5292" fill="#FFC145" />
</mask>
<g mask="url(#mask0_47:1583)">
<path
      d="M28.9569 37.1468V33.566C28.9569 31.6666 28.3862 29.845 27.3705 28.5019C26.3547 27.1588 24.977 26.4043 23.5405 26.4043H12.7077C11.2711 26.4043 9.89346 27.1588 8.87769 28.5019C7.86192 29.845 7.29126 31.6666 7.29126 33.566V37.1468"
      fill="#197BBD"
    />
<path
      d="M18.1227 20.9871C21.1141 20.9871 23.5391 18.5621 23.5391 15.5707C23.5391 12.5793 21.1141 10.1543 18.1227 10.1543C15.1313 10.1543 12.7063 12.5793 12.7063 15.5707C12.7063 18.5621 15.1313 20.9871 18.1227 20.9871Z"
      fill="white"
    />
</g>
</svg>
